<mxfile host="app.diagrams.net" modified="2021-03-31T05:09:23.400Z" agent="5.0 (Windows)" etag="BRgLyO4LoiW3theGBDKT" version="14.5.3" type="github">
  <diagram name="Page-1" id="0783ab3e-0a74-02c8-0abd-f7b4e66b4bec">
    <mxGraphModel dx="1303" dy="791" grid="1" gridSize="10" guides="1" tooltips="1" connect="1" arrows="1" fold="1" page="1" pageScale="1" pageWidth="850" pageHeight="1100" background="#ffffff" math="0" shadow="0">
      <root>
        <mxCell id="0" />
        <mxCell id="1" parent="0" />
        <mxCell id="1c1d494c118603dd-1" value="Pool" style="swimlane;html=1;childLayout=stackLayout;startSize=20;rounded=0;shadow=0;comic=0;labelBackgroundColor=none;strokeWidth=1;fontFamily=Verdana;fontSize=12;align=center;" parent="1" vertex="1">
          <mxGeometry x="40" y="20" width="835" height="990" as="geometry" />
        </mxCell>
        <mxCell id="1c1d494c118603dd-2" value="Lane 1" style="swimlane;html=1;startSize=20;" parent="1c1d494c118603dd-1" vertex="1">
          <mxGeometry y="20" width="250" height="970" as="geometry" />
        </mxCell>
        <mxCell id="1c1d494c118603dd-34" style="edgeStyle=none;rounded=0;html=1;labelBackgroundColor=none;startArrow=none;startFill=0;startSize=5;endArrow=classicThin;endFill=1;endSize=5;jettySize=auto;orthogonalLoop=1;strokeWidth=1;fontFamily=Verdana;fontSize=12" parent="1c1d494c118603dd-2" source="1c1d494c118603dd-6" target="1c1d494c118603dd-10" edge="1">
          <mxGeometry relative="1" as="geometry" />
        </mxCell>
        <mxCell id="1c1d494c118603dd-6" value="查看成交列表" style="rounded=1;whiteSpace=wrap;html=1;shadow=0;comic=0;labelBackgroundColor=none;strokeWidth=1;fontFamily=Verdana;fontSize=12;align=center;arcSize=50;" parent="1c1d494c118603dd-2" vertex="1">
          <mxGeometry x="90" y="220" width="100" height="30" as="geometry" />
        </mxCell>
        <mxCell id="1c1d494c118603dd-7" value="编辑按钮" style="rounded=1;whiteSpace=wrap;html=1;shadow=0;comic=0;labelBackgroundColor=none;strokeWidth=1;fontFamily=Verdana;fontSize=12;align=center;arcSize=50;" parent="1c1d494c118603dd-2" vertex="1">
          <mxGeometry x="150" y="350" width="100" height="30" as="geometry" />
        </mxCell>
        <mxCell id="1c1d494c118603dd-35" style="edgeStyle=none;rounded=0;html=1;labelBackgroundColor=none;startArrow=none;startFill=0;startSize=5;endArrow=classicThin;endFill=1;endSize=5;jettySize=auto;orthogonalLoop=1;strokeWidth=1;fontFamily=Verdana;fontSize=12" parent="1c1d494c118603dd-2" source="1c1d494c118603dd-10" target="1c1d494c118603dd-7" edge="1">
          <mxGeometry relative="1" as="geometry" />
        </mxCell>
        <mxCell id="1c1d494c118603dd-10" value="认购记录Item" style="rounded=0;whiteSpace=wrap;html=1;shadow=0;comic=0;labelBackgroundColor=none;strokeWidth=1;fontFamily=Verdana;fontSize=12;align=center;arcSize=50;" parent="1c1d494c118603dd-2" vertex="1">
          <mxGeometry x="140" y="280" width="70" height="30" as="geometry" />
        </mxCell>
        <mxCell id="1c1d494c118603dd-21" value="有显示，没有显示空" style="shape=note;whiteSpace=wrap;html=1;rounded=0;shadow=0;comic=0;labelBackgroundColor=none;strokeWidth=1;fontFamily=Verdana;fontSize=12;align=center;size=20;" parent="1c1d494c118603dd-2" vertex="1">
          <mxGeometry x="20" y="274" width="85" height="42" as="geometry" />
        </mxCell>
        <mxCell id="1c1d494c118603dd-14" value="认购成交详情" style="rounded=0;whiteSpace=wrap;html=1;shadow=0;comic=0;labelBackgroundColor=none;strokeWidth=1;fontFamily=Verdana;fontSize=12;align=center;arcSize=50;" parent="1c1d494c118603dd-2" vertex="1">
          <mxGeometry y="420" width="70" height="30" as="geometry" />
        </mxCell>
        <mxCell id="NS-Se5AjdIyRP91br3rv-33" style="edgeStyle=none;rounded=0;html=1;dashed=1;labelBackgroundColor=none;startArrow=none;startFill=0;startSize=5;endArrow=oval;endFill=0;endSize=5;jettySize=auto;orthogonalLoop=1;strokeWidth=1;fontFamily=Verdana;fontSize=12;entryX=0.1;entryY=1.033;entryDx=0;entryDy=0;entryPerimeter=0;exitX=0.5;exitY=0;exitDx=0;exitDy=0;exitPerimeter=0;" edge="1" parent="1c1d494c118603dd-2" source="1c1d494c118603dd-21" target="1c1d494c118603dd-6">
          <mxGeometry relative="1" as="geometry">
            <mxPoint x="800" y="390" as="sourcePoint" />
            <mxPoint x="707.5" y="300" as="targetPoint" />
          </mxGeometry>
        </mxCell>
        <mxCell id="NS-Se5AjdIyRP91br3rv-41" value="草签记录Item" style="rounded=0;whiteSpace=wrap;html=1;shadow=0;comic=0;labelBackgroundColor=none;strokeWidth=1;fontFamily=Verdana;fontSize=12;align=center;arcSize=50;" vertex="1" parent="1c1d494c118603dd-2">
          <mxGeometry x="70" y="640" width="70" height="30" as="geometry" />
        </mxCell>
        <mxCell id="NS-Se5AjdIyRP91br3rv-42" style="edgeStyle=none;rounded=0;html=1;labelBackgroundColor=none;startArrow=none;startFill=0;startSize=5;endArrow=classicThin;endFill=1;endSize=5;jettySize=auto;orthogonalLoop=1;strokeWidth=1;fontFamily=Verdana;fontSize=12;exitX=0.42;exitY=1.133;exitDx=0;exitDy=0;exitPerimeter=0;entryX=0.5;entryY=0;entryDx=0;entryDy=0;" edge="1" parent="1c1d494c118603dd-2" source="1c1d494c118603dd-6" target="NS-Se5AjdIyRP91br3rv-41">
          <mxGeometry relative="1" as="geometry">
            <mxPoint x="158.75" y="260" as="sourcePoint" />
            <mxPoint x="176.25" y="290" as="targetPoint" />
            <Array as="points" />
          </mxGeometry>
        </mxCell>
        <mxCell id="NS-Se5AjdIyRP91br3rv-43" value="编辑按钮" style="rounded=1;whiteSpace=wrap;html=1;shadow=0;comic=0;labelBackgroundColor=none;strokeWidth=1;fontFamily=Verdana;fontSize=12;align=center;arcSize=50;" vertex="1" parent="1c1d494c118603dd-2">
          <mxGeometry x="125" y="700" width="100" height="30" as="geometry" />
        </mxCell>
        <mxCell id="NS-Se5AjdIyRP91br3rv-44" style="edgeStyle=none;rounded=0;html=1;labelBackgroundColor=none;startArrow=none;startFill=0;startSize=5;endArrow=classicThin;endFill=1;endSize=5;jettySize=auto;orthogonalLoop=1;strokeWidth=1;fontFamily=Verdana;fontSize=12;exitX=0.75;exitY=1;exitDx=0;exitDy=0;entryX=0.5;entryY=0;entryDx=0;entryDy=0;" edge="1" parent="1c1d494c118603dd-2" source="NS-Se5AjdIyRP91br3rv-41" target="NS-Se5AjdIyRP91br3rv-43">
          <mxGeometry relative="1" as="geometry">
            <mxPoint x="190.3571428571429" y="320" as="sourcePoint" />
            <mxPoint x="204.6428571428571" y="360" as="targetPoint" />
          </mxGeometry>
        </mxCell>
        <mxCell id="NS-Se5AjdIyRP91br3rv-45" value="点击item" style="rounded=1;whiteSpace=wrap;html=1;shadow=0;comic=0;labelBackgroundColor=none;strokeWidth=1;fontFamily=Verdana;fontSize=12;align=center;arcSize=50;" vertex="1" parent="1c1d494c118603dd-2">
          <mxGeometry x="-10" y="700" width="100" height="30" as="geometry" />
        </mxCell>
        <mxCell id="NS-Se5AjdIyRP91br3rv-46" style="edgeStyle=none;rounded=0;html=1;labelBackgroundColor=none;startArrow=none;startFill=0;startSize=5;endArrow=classicThin;endFill=1;endSize=5;jettySize=auto;orthogonalLoop=1;strokeWidth=1;fontFamily=Verdana;fontSize=12;exitX=0.32;exitY=1;exitDx=0;exitDy=0;exitPerimeter=0;" edge="1" parent="1c1d494c118603dd-2">
          <mxGeometry relative="1" as="geometry">
            <mxPoint x="72.32" y="660" as="sourcePoint" />
            <mxPoint x="52.68363636363625" y="700" as="targetPoint" />
          </mxGeometry>
        </mxCell>
        <mxCell id="NS-Se5AjdIyRP91br3rv-47" value="草签成交详情" style="rounded=0;whiteSpace=wrap;html=1;shadow=0;comic=0;labelBackgroundColor=none;strokeWidth=1;fontFamily=Verdana;fontSize=12;align=center;arcSize=50;" vertex="1" parent="1c1d494c118603dd-2">
          <mxGeometry x="5" y="770" width="70" height="30" as="geometry" />
        </mxCell>
        <mxCell id="NS-Se5AjdIyRP91br3rv-48" style="edgeStyle=none;rounded=0;html=1;labelBackgroundColor=none;startArrow=none;startFill=0;startSize=5;endArrow=classicThin;endFill=1;endSize=5;jettySize=auto;orthogonalLoop=1;strokeWidth=1;fontFamily=Verdana;fontSize=12;" edge="1" parent="1c1d494c118603dd-2">
          <mxGeometry relative="1" as="geometry">
            <mxPoint x="49.81999999999999" y="730" as="sourcePoint" />
            <mxPoint x="30.183636363636253" y="770" as="targetPoint" />
          </mxGeometry>
        </mxCell>
        <mxCell id="1c1d494c118603dd-18" value="新增草签" style="rounded=1;whiteSpace=wrap;html=1;shadow=0;comic=0;labelBackgroundColor=none;strokeWidth=1;fontFamily=Verdana;fontSize=12;align=center;arcSize=50;" parent="1c1d494c118603dd-2" vertex="1">
          <mxGeometry x="120" y="760" width="100" height="30" as="geometry" />
        </mxCell>
        <mxCell id="NS-Se5AjdIyRP91br3rv-53" style="edgeStyle=orthogonalEdgeStyle;rounded=0;html=1;labelBackgroundColor=none;startArrow=none;startFill=0;startSize=5;endArrow=classicThin;endFill=1;endSize=5;jettySize=auto;orthogonalLoop=1;strokeWidth=1;fontFamily=Verdana;fontSize=12;exitX=0.5;exitY=1;exitDx=0;exitDy=0;" edge="1" parent="1c1d494c118603dd-2" source="NS-Se5AjdIyRP91br3rv-41">
          <mxGeometry relative="1" as="geometry">
            <mxPoint x="329.75" y="696.25" as="sourcePoint" />
            <mxPoint x="125" y="770" as="targetPoint" />
          </mxGeometry>
        </mxCell>
        <mxCell id="NS-Se5AjdIyRP91br3rv-96" style="edgeStyle=orthogonalEdgeStyle;rounded=0;html=1;entryX=0.694;entryY=-0.3;labelBackgroundColor=none;startArrow=none;startFill=0;startSize=5;endArrow=classicThin;endFill=1;endSize=5;jettySize=auto;orthogonalLoop=1;strokeWidth=1;fontFamily=Verdana;fontSize=12;entryDx=0;entryDy=0;entryPerimeter=0;" edge="1" parent="1c1d494c118603dd-2" target="NS-Se5AjdIyRP91br3rv-49">
          <mxGeometry relative="1" as="geometry">
            <mxPoint x="220.00000000000006" y="770" as="sourcePoint" />
            <mxPoint x="323.05" y="840" as="targetPoint" />
          </mxGeometry>
        </mxCell>
        <mxCell id="1c1d494c118603dd-28" style="edgeStyle=orthogonalEdgeStyle;rounded=0;html=1;entryX=0.5;entryY=0;labelBackgroundColor=none;startArrow=none;startFill=0;startSize=5;endArrow=classicThin;endFill=1;endSize=5;jettySize=auto;orthogonalLoop=1;strokeWidth=1;fontFamily=Verdana;fontSize=12" parent="1c1d494c118603dd-1" source="60571a20871a0731-8" target="60571a20871a0731-3" edge="1">
          <mxGeometry relative="1" as="geometry">
            <Array as="points">
              <mxPoint x="354" y="145" />
            </Array>
          </mxGeometry>
        </mxCell>
        <mxCell id="1c1d494c118603dd-29" style="edgeStyle=orthogonalEdgeStyle;rounded=0;html=1;exitX=0.75;exitY=1;labelBackgroundColor=none;startArrow=none;startFill=0;startSize=5;endArrow=classicThin;endFill=1;endSize=5;jettySize=auto;orthogonalLoop=1;strokeWidth=1;fontFamily=Verdana;fontSize=12;entryX=0.5;entryY=0;entryDx=0;entryDy=0;" parent="1c1d494c118603dd-1" source="60571a20871a0731-3" target="1c1d494c118603dd-5" edge="1">
          <mxGeometry relative="1" as="geometry">
            <Array as="points">
              <mxPoint x="390" y="210" />
              <mxPoint x="655" y="210" />
            </Array>
          </mxGeometry>
        </mxCell>
        <mxCell id="1c1d494c118603dd-30" style="edgeStyle=orthogonalEdgeStyle;rounded=0;html=1;exitX=0.25;exitY=1;entryX=0.5;entryY=0;labelBackgroundColor=none;startArrow=none;startFill=0;startSize=5;endArrow=classicThin;endFill=1;endSize=5;jettySize=auto;orthogonalLoop=1;strokeWidth=1;fontFamily=Verdana;fontSize=12" parent="1c1d494c118603dd-1" source="60571a20871a0731-3" target="1c1d494c118603dd-6" edge="1">
          <mxGeometry relative="1" as="geometry">
            <Array as="points">
              <mxPoint x="317" y="210" />
              <mxPoint x="140" y="210" />
            </Array>
          </mxGeometry>
        </mxCell>
        <mxCell id="1c1d494c118603dd-31" style="edgeStyle=orthogonalEdgeStyle;rounded=0;html=1;entryX=0.75;entryY=0;labelBackgroundColor=none;startArrow=none;startFill=0;startSize=5;endArrow=classicThin;endFill=1;endSize=5;jettySize=auto;orthogonalLoop=1;strokeWidth=1;fontFamily=Verdana;fontSize=12;exitX=0;exitY=0.75;exitDx=0;exitDy=0;" parent="1c1d494c118603dd-1" source="1c1d494c118603dd-5" target="1c1d494c118603dd-12" edge="1">
          <mxGeometry relative="1" as="geometry">
            <mxPoint x="590" y="370" as="sourcePoint" />
          </mxGeometry>
        </mxCell>
        <mxCell id="1c1d494c118603dd-32" style="edgeStyle=orthogonalEdgeStyle;rounded=0;html=1;entryX=0.25;entryY=0;labelBackgroundColor=none;startArrow=none;startFill=0;startSize=5;endArrow=classicThin;endFill=1;endSize=5;jettySize=auto;orthogonalLoop=1;strokeWidth=1;fontFamily=Verdana;fontSize=12" parent="1c1d494c118603dd-1" source="1c1d494c118603dd-7" target="1c1d494c118603dd-12" edge="1">
          <mxGeometry relative="1" as="geometry" />
        </mxCell>
        <mxCell id="NS-Se5AjdIyRP91br3rv-30" style="edgeStyle=none;rounded=0;html=1;labelBackgroundColor=none;startArrow=none;startFill=0;startSize=5;endArrow=classicThin;endFill=1;endSize=5;jettySize=auto;orthogonalLoop=1;strokeWidth=1;fontFamily=Verdana;fontSize=12;entryX=1;entryY=0.5;entryDx=0;entryDy=0;exitX=0.25;exitY=0;exitDx=0;exitDy=0;" edge="1" parent="1c1d494c118603dd-1" source="1c1d494c118603dd-15" target="1c1d494c118603dd-6">
          <mxGeometry relative="1" as="geometry">
            <mxPoint x="645" y="477.5" as="sourcePoint" />
            <mxPoint x="545" y="397.2222222222222" as="targetPoint" />
            <Array as="points">
              <mxPoint x="445" y="255" />
            </Array>
          </mxGeometry>
        </mxCell>
        <mxCell id="1c1d494c118603dd-3" value="Lane 2" style="swimlane;html=1;startSize=20;" parent="1c1d494c118603dd-1" vertex="1">
          <mxGeometry x="250" y="20" width="295" height="970" as="geometry" />
        </mxCell>
        <mxCell id="60571a20871a0731-3" value="" style="whiteSpace=wrap;html=1;rounded=0;shadow=0;comic=0;labelBackgroundColor=none;strokeWidth=1;fillColor=#000000;fontFamily=Verdana;fontSize=12;align=center;rotation=0;" parent="1c1d494c118603dd-3" vertex="1">
          <mxGeometry x="30" y="160" width="147" height="10" as="geometry" />
        </mxCell>
        <mxCell id="1c1d494c118603dd-39" style="edgeStyle=none;rounded=0;html=1;labelBackgroundColor=none;startArrow=none;startFill=0;startSize=5;endArrow=classicThin;endFill=1;endSize=5;jettySize=auto;orthogonalLoop=1;strokeWidth=1;fontFamily=Verdana;fontSize=12" parent="1c1d494c118603dd-3" source="NS-Se5AjdIyRP91br3rv-34" edge="1">
          <mxGeometry relative="1" as="geometry">
            <mxPoint x="114" y="500" as="targetPoint" />
          </mxGeometry>
        </mxCell>
        <mxCell id="1c1d494c118603dd-12" value="" style="whiteSpace=wrap;html=1;rounded=0;shadow=0;comic=0;labelBackgroundColor=none;strokeWidth=1;fillColor=#000000;fontFamily=Verdana;fontSize=12;align=center;rotation=0;" parent="1c1d494c118603dd-3" vertex="1">
          <mxGeometry x="40" y="410" width="147" height="10" as="geometry" />
        </mxCell>
        <mxCell id="1c1d494c118603dd-15" value="弹出确定框生成认购单 " style="rounded=0;whiteSpace=wrap;html=1;shadow=0;comic=0;labelBackgroundColor=none;strokeWidth=1;fontFamily=Verdana;fontSize=12;align=center;arcSize=50;" parent="1c1d494c118603dd-3" vertex="1">
          <mxGeometry x="177" y="610" width="70" height="30" as="geometry" />
        </mxCell>
        <mxCell id="1c1d494c118603dd-53" style="edgeStyle=none;rounded=0;html=1;dashed=1;labelBackgroundColor=none;startArrow=none;startFill=0;startSize=5;endArrow=oval;endFill=0;endSize=5;jettySize=auto;orthogonalLoop=1;strokeWidth=1;fontFamily=Verdana;fontSize=12" parent="1c1d494c118603dd-3" target="1c1d494c118603dd-15" edge="1">
          <mxGeometry relative="1" as="geometry">
            <mxPoint x="70" y="625" as="sourcePoint" />
          </mxGeometry>
        </mxCell>
        <mxCell id="NS-Se5AjdIyRP91br3rv-34" value="认购信息录入" style="rounded=0;whiteSpace=wrap;html=1;shadow=0;comic=0;labelBackgroundColor=none;strokeWidth=1;fontFamily=Verdana;fontSize=12;align=center;arcSize=50;direction=south;" vertex="1" parent="1c1d494c118603dd-3">
          <mxGeometry x="73.5" y="450" width="80" height="30" as="geometry" />
        </mxCell>
        <mxCell id="NS-Se5AjdIyRP91br3rv-35" style="edgeStyle=none;rounded=0;html=1;labelBackgroundColor=none;startArrow=none;startFill=0;startSize=5;endArrow=classicThin;endFill=1;endSize=5;jettySize=auto;orthogonalLoop=1;strokeWidth=1;fontFamily=Verdana;fontSize=12" edge="1" parent="1c1d494c118603dd-3" source="1c1d494c118603dd-12" target="NS-Se5AjdIyRP91br3rv-34">
          <mxGeometry relative="1" as="geometry">
            <mxPoint x="403.5" y="460" as="sourcePoint" />
            <mxPoint x="403.5" y="550" as="targetPoint" />
          </mxGeometry>
        </mxCell>
        <mxCell id="NS-Se5AjdIyRP91br3rv-19" value="信息是否完整" style="rhombus;whiteSpace=wrap;html=1;fillColor=#ffffc0;strokeColor=#ff0000;" vertex="1" parent="1c1d494c118603dd-3">
          <mxGeometry x="73.5" y="500" width="80" height="40" as="geometry" />
        </mxCell>
        <mxCell id="NS-Se5AjdIyRP91br3rv-21" value="yes" style="edgeStyle=orthogonalEdgeStyle;html=1;align=left;verticalAlign=top;endArrow=open;endSize=8;strokeColor=#ff0000;entryX=0.5;entryY=0;entryDx=0;entryDy=0;" edge="1" source="NS-Se5AjdIyRP91br3rv-19" parent="1c1d494c118603dd-3" target="1c1d494c118603dd-15">
          <mxGeometry x="-1" relative="1" as="geometry">
            <mxPoint x="425" y="480" as="targetPoint" />
          </mxGeometry>
        </mxCell>
        <mxCell id="NS-Se5AjdIyRP91br3rv-20" value="no" style="edgeStyle=orthogonalEdgeStyle;html=1;align=left;verticalAlign=bottom;endArrow=open;endSize=8;strokeColor=#ff0000;" edge="1" source="NS-Se5AjdIyRP91br3rv-19" parent="1c1d494c118603dd-3" target="NS-Se5AjdIyRP91br3rv-23">
          <mxGeometry x="-1" relative="1" as="geometry">
            <mxPoint x="25" y="597.5" as="targetPoint" />
          </mxGeometry>
        </mxCell>
        <mxCell id="NS-Se5AjdIyRP91br3rv-23" value="不可点击" style="rounded=0;whiteSpace=wrap;html=1;shadow=0;comic=0;labelBackgroundColor=none;strokeWidth=1;fontFamily=Verdana;fontSize=12;align=center;arcSize=50;" vertex="1" parent="1c1d494c118603dd-3">
          <mxGeometry x="3.5" y="610" width="50" height="30" as="geometry" />
        </mxCell>
        <mxCell id="1c1d494c118603dd-9" value="客户信息录入" style="rounded=0;whiteSpace=wrap;html=1;shadow=0;comic=0;labelBackgroundColor=none;strokeWidth=1;fontFamily=Verdana;fontSize=12;align=center;arcSize=50;direction=south;" parent="1c1d494c118603dd-3" vertex="1">
          <mxGeometry x="215" y="400" width="80" height="30" as="geometry" />
        </mxCell>
        <mxCell id="NS-Se5AjdIyRP91br3rv-1" value="认购信息" style="rounded=0;whiteSpace=wrap;html=1;shadow=0;comic=0;labelBackgroundColor=none;strokeWidth=1;fontFamily=Verdana;fontSize=12;align=center;arcSize=50;" vertex="1" parent="1c1d494c118603dd-3">
          <mxGeometry x="215" y="450" width="60" height="30" as="geometry" />
        </mxCell>
        <mxCell id="NS-Se5AjdIyRP91br3rv-6" value="业绩信息" style="rounded=0;whiteSpace=wrap;html=1;shadow=0;comic=0;labelBackgroundColor=none;strokeWidth=1;fontFamily=Verdana;fontSize=12;align=center;arcSize=50;" vertex="1" parent="1c1d494c118603dd-3">
          <mxGeometry x="215" y="500" width="65" height="30" as="geometry" />
        </mxCell>
        <mxCell id="NS-Se5AjdIyRP91br3rv-37" style="edgeStyle=none;rounded=0;html=1;labelBackgroundColor=none;startArrow=none;startFill=0;startSize=5;endArrow=classicThin;endFill=1;endSize=5;jettySize=auto;orthogonalLoop=1;strokeWidth=1;fontFamily=Verdana;fontSize=12;exitX=0.5;exitY=0;exitDx=0;exitDy=0;entryX=0.75;entryY=1;entryDx=0;entryDy=0;" edge="1" parent="1c1d494c118603dd-3" source="NS-Se5AjdIyRP91br3rv-34" target="1c1d494c118603dd-9">
          <mxGeometry relative="1" as="geometry">
            <mxPoint x="-91.25" y="260" as="sourcePoint" />
            <mxPoint x="-73.75" y="290" as="targetPoint" />
          </mxGeometry>
        </mxCell>
        <mxCell id="NS-Se5AjdIyRP91br3rv-40" style="edgeStyle=none;rounded=0;html=1;labelBackgroundColor=none;startArrow=none;startFill=0;startSize=5;endArrow=classicThin;endFill=1;endSize=5;jettySize=auto;orthogonalLoop=1;strokeWidth=1;fontFamily=Verdana;fontSize=12;entryX=0.25;entryY=1;entryDx=0;entryDy=0;exitX=0.25;exitY=0;exitDx=0;exitDy=0;" edge="1" parent="1c1d494c118603dd-3" source="NS-Se5AjdIyRP91br3rv-23" target="NS-Se5AjdIyRP91br3rv-34">
          <mxGeometry relative="1" as="geometry">
            <mxPoint x="30" y="600" as="sourcePoint" />
            <mxPoint x="-197.63636363636374" y="430" as="targetPoint" />
            <Array as="points">
              <mxPoint x="10" y="520" />
            </Array>
          </mxGeometry>
        </mxCell>
        <mxCell id="NS-Se5AjdIyRP91br3rv-49" value="" style="whiteSpace=wrap;html=1;rounded=0;shadow=0;comic=0;labelBackgroundColor=none;strokeWidth=1;fillColor=#000000;fontFamily=Verdana;fontSize=12;align=center;rotation=0;" vertex="1" parent="1c1d494c118603dd-3">
          <mxGeometry x="43" y="790" width="147" height="10" as="geometry" />
        </mxCell>
        <mxCell id="NS-Se5AjdIyRP91br3rv-52" style="edgeStyle=orthogonalEdgeStyle;rounded=0;html=1;entryX=0.25;entryY=0;labelBackgroundColor=none;startArrow=none;startFill=0;startSize=5;endArrow=classicThin;endFill=1;endSize=5;jettySize=auto;orthogonalLoop=1;strokeWidth=1;fontFamily=Verdana;fontSize=12;entryDx=0;entryDy=0;fontStyle=1" edge="1" parent="1c1d494c118603dd-3" target="NS-Se5AjdIyRP91br3rv-49">
          <mxGeometry relative="1" as="geometry">
            <mxPoint x="-23.30000000000001" y="720" as="sourcePoint" />
            <mxPoint x="53.44999999999999" y="765" as="targetPoint" />
          </mxGeometry>
        </mxCell>
        <mxCell id="NS-Se5AjdIyRP91br3rv-54" value="认购信息录入" style="rounded=0;whiteSpace=wrap;html=1;shadow=0;comic=0;labelBackgroundColor=none;strokeWidth=1;fontFamily=Verdana;fontSize=12;align=center;arcSize=50;direction=south;" vertex="1" parent="1c1d494c118603dd-3">
          <mxGeometry x="80" y="830" width="80" height="30" as="geometry" />
        </mxCell>
        <mxCell id="NS-Se5AjdIyRP91br3rv-84" style="edgeStyle=none;rounded=0;html=1;labelBackgroundColor=none;startArrow=none;startFill=0;startSize=5;endArrow=classicThin;endFill=1;endSize=5;jettySize=auto;orthogonalLoop=1;strokeWidth=1;fontFamily=Verdana;fontSize=12" edge="1" parent="1c1d494c118603dd-3">
          <mxGeometry relative="1" as="geometry">
            <mxPoint x="119.5" y="800" as="sourcePoint" />
            <mxPoint x="119.5" y="830" as="targetPoint" />
          </mxGeometry>
        </mxCell>
        <mxCell id="NS-Se5AjdIyRP91br3rv-85" value="楼盘信息" style="rounded=0;whiteSpace=wrap;html=1;shadow=0;comic=0;labelBackgroundColor=none;strokeWidth=1;fontFamily=Verdana;fontSize=12;align=center;arcSize=50;direction=south;" vertex="1" parent="1c1d494c118603dd-3">
          <mxGeometry x="207.5" y="780" width="80" height="30" as="geometry" />
        </mxCell>
        <mxCell id="NS-Se5AjdIyRP91br3rv-86" value="客户信息" style="rounded=0;whiteSpace=wrap;html=1;shadow=0;comic=0;labelBackgroundColor=none;strokeWidth=1;fontFamily=Verdana;fontSize=12;align=center;arcSize=50;" vertex="1" parent="1c1d494c118603dd-3">
          <mxGeometry x="215" y="820" width="60" height="30" as="geometry" />
        </mxCell>
        <mxCell id="NS-Se5AjdIyRP91br3rv-87" value="草签信息" style="rounded=0;whiteSpace=wrap;html=1;shadow=0;comic=0;labelBackgroundColor=none;strokeWidth=1;fontFamily=Verdana;fontSize=12;align=center;arcSize=50;" vertex="1" parent="1c1d494c118603dd-3">
          <mxGeometry x="215" y="860" width="65" height="30" as="geometry" />
        </mxCell>
        <mxCell id="NS-Se5AjdIyRP91br3rv-88" value="业绩信息" style="rounded=0;whiteSpace=wrap;html=1;shadow=0;comic=0;labelBackgroundColor=none;strokeWidth=1;fontFamily=Verdana;fontSize=12;align=center;arcSize=50;" vertex="1" parent="1c1d494c118603dd-3">
          <mxGeometry x="215" y="900" width="65" height="30" as="geometry" />
        </mxCell>
        <mxCell id="NS-Se5AjdIyRP91br3rv-94" style="edgeStyle=none;rounded=0;html=1;labelBackgroundColor=none;startArrow=none;startFill=0;startSize=5;endArrow=classicThin;endFill=1;endSize=5;jettySize=auto;orthogonalLoop=1;strokeWidth=1;fontFamily=Verdana;fontSize=12;exitX=0.5;exitY=0;exitDx=0;exitDy=0;entryX=0.75;entryY=1;entryDx=0;entryDy=0;" edge="1" parent="1c1d494c118603dd-3">
          <mxGeometry relative="1" as="geometry">
            <mxPoint x="153.5" y="842.5" as="sourcePoint" />
            <mxPoint x="215" y="800" as="targetPoint" />
          </mxGeometry>
        </mxCell>
        <mxCell id="NS-Se5AjdIyRP91br3rv-93" style="edgeStyle=none;rounded=0;html=1;labelBackgroundColor=none;startArrow=none;startFill=0;startSize=5;endArrow=classicThin;endFill=1;endSize=5;jettySize=auto;orthogonalLoop=1;strokeWidth=1;fontFamily=Verdana;fontSize=12;exitX=0.5;exitY=0;exitDx=0;exitDy=0;entryX=0.75;entryY=1;entryDx=0;entryDy=0;" edge="1" parent="1c1d494c118603dd-3" source="NS-Se5AjdIyRP91br3rv-54">
          <mxGeometry relative="1" as="geometry">
            <mxPoint x="160" y="872.5" as="sourcePoint" />
            <mxPoint x="221.5" y="830" as="targetPoint" />
          </mxGeometry>
        </mxCell>
        <mxCell id="NS-Se5AjdIyRP91br3rv-92" style="edgeStyle=none;rounded=0;html=1;labelBackgroundColor=none;startArrow=none;startFill=0;startSize=5;endArrow=classicThin;endFill=1;endSize=5;jettySize=auto;orthogonalLoop=1;strokeWidth=1;fontFamily=Verdana;fontSize=12;exitX=0.5;exitY=0;exitDx=0;exitDy=0;entryX=0.75;entryY=1;entryDx=0;entryDy=0;" edge="1" parent="1c1d494c118603dd-3" source="NS-Se5AjdIyRP91br3rv-54">
          <mxGeometry relative="1" as="geometry">
            <mxPoint x="160" y="912.5" as="sourcePoint" />
            <mxPoint x="221.5" y="870" as="targetPoint" />
          </mxGeometry>
        </mxCell>
        <mxCell id="NS-Se5AjdIyRP91br3rv-95" style="edgeStyle=none;rounded=0;html=1;labelBackgroundColor=none;startArrow=none;startFill=0;startSize=5;endArrow=classicThin;endFill=1;endSize=5;jettySize=auto;orthogonalLoop=1;strokeWidth=1;fontFamily=Verdana;fontSize=12;exitX=0.75;exitY=0;exitDx=0;exitDy=0;entryX=0.75;entryY=1;entryDx=0;entryDy=0;" edge="1" parent="1c1d494c118603dd-3" source="NS-Se5AjdIyRP91br3rv-54">
          <mxGeometry relative="1" as="geometry">
            <mxPoint x="160" y="952.5" as="sourcePoint" />
            <mxPoint x="221.5" y="910" as="targetPoint" />
          </mxGeometry>
        </mxCell>
        <mxCell id="1c1d494c118603dd-4" value="Lane 3" style="swimlane;html=1;startSize=20;" parent="1c1d494c118603dd-1" vertex="1">
          <mxGeometry x="545" y="20" width="290" height="970" as="geometry" />
        </mxCell>
        <mxCell id="1c1d494c118603dd-27" style="edgeStyle=orthogonalEdgeStyle;rounded=0;html=1;labelBackgroundColor=none;startArrow=none;startFill=0;startSize=5;endArrow=classicThin;endFill=1;endSize=5;jettySize=auto;orthogonalLoop=1;strokeWidth=1;fontFamily=Verdana;fontSize=12" parent="1c1d494c118603dd-4" source="60571a20871a0731-4" target="60571a20871a0731-8" edge="1">
          <mxGeometry relative="1" as="geometry" />
        </mxCell>
        <mxCell id="60571a20871a0731-4" value="ga 邢台" style="ellipse;whiteSpace=wrap;html=1;rounded=0;shadow=0;comic=0;labelBackgroundColor=none;strokeWidth=1;fillColor=#000000;fontFamily=Verdana;fontSize=12;align=center;" parent="1c1d494c118603dd-4" vertex="1">
          <mxGeometry x="80" y="40" width="40" height="40" as="geometry" />
        </mxCell>
        <mxCell id="60571a20871a0731-8" value="查看客资详情(成交模块)" style="rounded=1;whiteSpace=wrap;html=1;shadow=0;comic=0;labelBackgroundColor=none;strokeWidth=1;fontFamily=Verdana;fontSize=12;align=center;arcSize=50;" parent="1c1d494c118603dd-4" vertex="1">
          <mxGeometry x="50" y="110" width="100" height="30" as="geometry" />
        </mxCell>
        <mxCell id="1c1d494c118603dd-5" value="新增认购" style="rounded=1;whiteSpace=wrap;html=1;shadow=0;comic=0;labelBackgroundColor=none;strokeWidth=1;fontFamily=Verdana;fontSize=12;align=center;arcSize=50;" parent="1c1d494c118603dd-4" vertex="1">
          <mxGeometry x="70" y="230" width="100" height="30" as="geometry" />
        </mxCell>
        <mxCell id="60571a20871a0731-5" value="" style="shape=mxgraph.bpmn.shape;html=1;verticalLabelPosition=bottom;labelBackgroundColor=#ffffff;verticalAlign=top;perimeter=ellipsePerimeter;outline=end;symbol=terminate;rounded=0;shadow=0;comic=0;strokeWidth=1;fontFamily=Verdana;fontSize=12;align=center;" parent="1c1d494c118603dd-4" vertex="1">
          <mxGeometry x="165" y="880" width="40" height="40" as="geometry" />
        </mxCell>
        <mxCell id="1c1d494c118603dd-20" value="添加共有人（最多10个最少1个）录入信息 姓名、手机号和身份证，主联系人" style="shape=note;whiteSpace=wrap;html=1;rounded=0;shadow=0;comic=0;labelBackgroundColor=none;strokeWidth=1;fontFamily=Verdana;fontSize=12;align=center;size=20;" parent="1" vertex="1">
          <mxGeometry x="840" y="110" width="75" height="114" as="geometry" />
        </mxCell>
        <mxCell id="1c1d494c118603dd-48" style="edgeStyle=none;rounded=0;html=1;dashed=1;labelBackgroundColor=none;startArrow=none;startFill=0;startSize=5;endArrow=oval;endFill=0;endSize=5;jettySize=auto;orthogonalLoop=1;strokeWidth=1;fontFamily=Verdana;fontSize=12" parent="1" source="1c1d494c118603dd-20" target="1c1d494c118603dd-9" edge="1">
          <mxGeometry relative="1" as="geometry">
            <mxPoint x="610" y="320" as="targetPoint" />
          </mxGeometry>
        </mxCell>
        <mxCell id="NS-Se5AjdIyRP91br3rv-12" value="楼盘录入、房间信息录入、附件录入【添加、上传图片】、物业类型由楼盘带出" style="shape=note;whiteSpace=wrap;html=1;rounded=0;shadow=0;comic=0;labelBackgroundColor=none;strokeWidth=1;fontFamily=Verdana;fontSize=12;align=center;size=20;" vertex="1" parent="1">
          <mxGeometry x="840" y="240" width="75" height="114" as="geometry" />
        </mxCell>
        <mxCell id="NS-Se5AjdIyRP91br3rv-13" style="edgeStyle=none;rounded=0;html=1;dashed=1;labelBackgroundColor=none;startArrow=none;startFill=0;startSize=5;endArrow=oval;endFill=0;endSize=5;jettySize=auto;orthogonalLoop=1;strokeWidth=1;fontFamily=Verdana;fontSize=12;exitX=0.013;exitY=0.439;exitDx=0;exitDy=0;exitPerimeter=0;entryX=1;entryY=0.5;entryDx=0;entryDy=0;" edge="1" parent="1" source="NS-Se5AjdIyRP91br3rv-12" target="NS-Se5AjdIyRP91br3rv-1">
          <mxGeometry relative="1" as="geometry">
            <mxPoint x="850" y="198.4485981308411" as="sourcePoint" />
            <mxPoint x="620" y="330" as="targetPoint" />
          </mxGeometry>
        </mxCell>
        <mxCell id="NS-Se5AjdIyRP91br3rv-14" value="楼盘录入、房间信息录入、附件录入【添加、上传图片】、物业类型由楼盘带出" style="shape=note;whiteSpace=wrap;html=1;rounded=0;shadow=0;comic=0;labelBackgroundColor=none;strokeWidth=1;fontFamily=Verdana;fontSize=12;align=center;size=20;" vertex="1" parent="1">
          <mxGeometry x="840" y="380" width="75" height="114" as="geometry" />
        </mxCell>
        <mxCell id="NS-Se5AjdIyRP91br3rv-15" style="edgeStyle=none;rounded=0;html=1;dashed=1;labelBackgroundColor=none;startArrow=none;startFill=0;startSize=5;endArrow=oval;endFill=0;endSize=5;jettySize=auto;orthogonalLoop=1;strokeWidth=1;fontFamily=Verdana;fontSize=12;entryX=1;entryY=0.5;entryDx=0;entryDy=0;" edge="1" parent="1" target="NS-Se5AjdIyRP91br3rv-6">
          <mxGeometry relative="1" as="geometry">
            <mxPoint x="830" y="420" as="sourcePoint" />
            <mxPoint x="690" y="325" as="targetPoint" />
          </mxGeometry>
        </mxCell>
        <mxCell id="NS-Se5AjdIyRP91br3rv-27" value="点击item" style="rounded=1;whiteSpace=wrap;html=1;shadow=0;comic=0;labelBackgroundColor=none;strokeWidth=1;fontFamily=Verdana;fontSize=12;align=center;arcSize=50;" vertex="1" parent="1">
          <mxGeometry x="70" y="390" width="100" height="30" as="geometry" />
        </mxCell>
        <mxCell id="NS-Se5AjdIyRP91br3rv-28" style="edgeStyle=none;rounded=0;html=1;labelBackgroundColor=none;startArrow=none;startFill=0;startSize=5;endArrow=classicThin;endFill=1;endSize=5;jettySize=auto;orthogonalLoop=1;strokeWidth=1;fontFamily=Verdana;fontSize=12;exitX=0.157;exitY=0.967;exitDx=0;exitDy=0;exitPerimeter=0;entryX=0.75;entryY=0;entryDx=0;entryDy=0;" edge="1" parent="1" source="1c1d494c118603dd-10" target="NS-Se5AjdIyRP91br3rv-27">
          <mxGeometry relative="1" as="geometry">
            <mxPoint x="230.3571428571429" y="360" as="sourcePoint" />
            <mxPoint x="244.6428571428571" y="400" as="targetPoint" />
          </mxGeometry>
        </mxCell>
        <mxCell id="1c1d494c118603dd-36" style="edgeStyle=none;rounded=0;html=1;labelBackgroundColor=none;startArrow=none;startFill=0;startSize=5;endArrow=classicThin;endFill=1;endSize=5;jettySize=auto;orthogonalLoop=1;strokeWidth=1;fontFamily=Verdana;fontSize=12;exitX=0.32;exitY=1;exitDx=0;exitDy=0;exitPerimeter=0;" parent="1" source="NS-Se5AjdIyRP91br3rv-27" target="1c1d494c118603dd-14" edge="1">
          <mxGeometry relative="1" as="geometry" />
        </mxCell>
        <mxCell id="NS-Se5AjdIyRP91br3rv-38" style="edgeStyle=none;rounded=0;html=1;labelBackgroundColor=none;startArrow=none;startFill=0;startSize=5;endArrow=classicThin;endFill=1;endSize=5;jettySize=auto;orthogonalLoop=1;strokeWidth=1;fontFamily=Verdana;fontSize=12;exitX=0.5;exitY=0;exitDx=0;exitDy=0;" edge="1" parent="1" source="NS-Se5AjdIyRP91br3rv-34">
          <mxGeometry relative="1" as="geometry">
            <mxPoint x="453.5" y="515" as="sourcePoint" />
            <mxPoint x="510" y="505" as="targetPoint" />
          </mxGeometry>
        </mxCell>
        <mxCell id="NS-Se5AjdIyRP91br3rv-39" style="edgeStyle=none;rounded=0;html=1;labelBackgroundColor=none;startArrow=none;startFill=0;startSize=5;endArrow=classicThin;endFill=1;endSize=5;jettySize=auto;orthogonalLoop=1;strokeWidth=1;fontFamily=Verdana;fontSize=12;" edge="1" parent="1">
          <mxGeometry relative="1" as="geometry">
            <mxPoint x="440" y="510" as="sourcePoint" />
            <mxPoint x="500" y="550" as="targetPoint" />
          </mxGeometry>
        </mxCell>
      </root>
    </mxGraphModel>
  </diagram>
</mxfile>
